<svg xmlns="http://www.w3.org/2000/svg" xmlns:xlink="http://www.w3.org/1999/xlink" fill="none" stroke="none" stroke-linecap="square" stroke-miterlimit="10" version="1.1" viewBox="0 0 118.874 100"><clipPath id="p.0"><path d="m0 0l118.874016 0l0 100.0l-118.874016 0l0 -100.0z" clip-rule="nonzero"/></clipPath><g clip-path="url(#p.0)"><path fill="#000" fill-opacity="0" fill-rule="evenodd" d="m0 0l118.874016 0l0 100.0l-118.874016 0z"/><path fill="#000" fill-opacity="0" fill-rule="evenodd" d="m-0.7506562 20.110237l228.28346 0l0 59.779526l-228.28346 0z"/><path fill="#fff" fill-rule="nonzero" d="m13.952469 61.110237l0 -22.328125q-0.03125 0.03125 -0.75 0.203125q-0.71875 0.15625 -1.625 0.328125q-0.890625 0.171875 -1.59375 0.3125q-0.703125 0.125 -0.734375 0.125l0 -2.703125q0.5625 -0.140625 1.3125 -0.359375q0.75 -0.234375 1.53125 -0.5625q0.78125 -0.34375 1.5 -0.84375q0.71875 -0.5 1.21875 -1.171875l2.703125 0l0 27.0l-3.5625 0zm21.923782 0l-6.03125 -27.0l3.53125 0l4.265625 19.90625l4.0625 -19.90625l3.4375 0l-5.96875 27.0l-3.296875 0zm19.759674 0l0 -27.0l6.703125 0q2.4375 0 3.875 0.890625q1.453125 0.875 2.125 2.546875q0.671875 1.671875 0.671875 4.03125q0 2.140625 -0.75 3.703125q-0.75 1.5625 -2.21875 2.421875q-1.46875 0.84375 -3.671875 0.84375l-2.96875 0l0 12.5625l-3.765625 0zm3.765625 -15.265625l1.734375 0q1.640625 0 2.5625 -0.359375q0.9375 -0.375 1.328125 -1.28125q0.40625 -0.921875 0.40625 -2.59375q0 -1.9375 -0.28125 -2.96875q-0.28125 -1.03125 -1.1875 -1.421875q-0.890625 -0.40625 -2.796875 -0.40625l-1.765625 0l0 9.03125zm19.863968 15.265625l0 -27.0l6.703125 0q2.4375 0 3.875 0.890625q1.453125 0.875 2.125 2.546875q0.671875 1.671875 0.671875 4.03125q0 2.140625 -0.75 3.703125q-0.75 1.5625 -2.21875 2.421875q-1.46875 0.84375 -3.671875 0.84375l-2.96875 0l0 12.5625l-3.765625 0zm3.765625 -15.265625l1.734375 0q1.640625 0 2.5625 -0.359375q0.9375 -0.375 1.328125 -1.28125q0.40625 -0.921875 0.40625 -2.59375q0 -1.9375 -0.28125 -2.96875q-0.28125 -1.03125 -1.1875 -1.421875q-0.890625 -0.40625 -2.796875 -0.40625l-1.765625 0l0 9.03125z"/></g></svg>